<svg width="968" height="169" viewBox="0 0 968 169" fill="none" xmlns="http://www.w3.org/2000/svg">
<rect width="968" height="169" fill="#183446"/>
<path d="M115.208 104.976V105.104C110.6 110.352 104.584 114.192 97.8 116.24C93.832 117.392 89.608 118.032 85.128 118.032C61.96 118.032 45.064 100.88 45.064 77.2C45.064 53.52 61.96 36.368 85.128 36.368C97.288 36.368 107.784 40.976 115.208 49.296L102.408 57.616C98.056 53.264 92.04 50.832 85.128 50.832C68.872 50.832 60.296 64.016 60.296 77.2C60.296 90.384 68.872 103.696 85.128 103.696C87.944 103.696 90.632 103.184 93.192 102.416C96.52 101.392 99.464 99.6 102.024 97.168C102.152 97.04 102.28 96.912 102.536 96.656C103.816 95.504 104.968 94.096 105.992 92.56L101.384 89.488L101.128 89.744L99.848 91.536C99.72 91.792 99.464 91.92 99.336 92.176C97.16 94.608 94.472 96.4 91.4 97.296C89.48 97.936 87.432 98.32 85.128 98.32C71.816 98.32 65.8 87.312 65.8 77.2C65.8 67.088 71.816 56.208 85.128 56.208C92.936 56.208 97.416 59.792 99.848 62.864L101.384 64.784L123.016 50.576L121.352 48.272C112.904 37.264 99.848 30.992 85.128 30.992C72.456 30.992 60.808 35.728 52.488 44.176C44.296 52.624 39.688 64.4 39.688 77.2C39.688 90 44.296 101.776 52.488 110.224C60.808 118.8 72.456 123.536 85.128 123.536C99.592 123.536 112.648 117.264 120.968 106.512C121.096 106.384 121.224 106.256 121.352 106L123.016 103.824L118.536 100.88C117.512 102.288 116.36 103.696 115.208 104.976ZM201.559 107.792L200.535 104.976L199.767 102.928H148.695L144.215 117.136H129.879L155.607 45.84H174.039L189.527 88.848H176.599L164.823 51.472L151.511 93.712H196.439L194.775 88.848L177.495 40.976H152.151L122.967 122H147.799L152.279 107.792H177.495L181.975 122H206.679L201.559 107.792ZM158.167 88.848L164.823 67.728L171.479 88.848H158.167ZM185.559 117.136L182.615 107.792H196.439L199.767 117.136H185.559ZM265.118 90.768C272.158 85.904 275.998 78.48 275.998 69.776C275.998 51.984 263.838 40.976 244.382 40.976H212.638V80.912H244.382C252.446 80.912 257.182 76.688 257.182 69.776C257.182 62.992 252.19 58.64 244.382 58.64H231.198V76.048H217.502V45.84H244.382C261.15 45.84 271.134 54.8 271.134 69.776C271.134 77.584 267.55 83.856 260.638 87.696L258.59 88.976L273.95 117.136H259.742L246.942 91.664H237.726H212.638V122H236.062V96.528H243.87L256.798 122H282.142L265.118 90.768ZM236.062 63.504H244.382C247.326 63.504 252.318 64.272 252.318 69.776C252.318 73.872 249.63 76.048 244.382 76.048H236.062V63.504ZM217.502 117.136V96.528H231.198V117.136H217.502ZM355.847 51.344C350.599 45.968 343.943 42.256 336.391 40.464C334.855 40.08 333.191 39.824 331.527 39.568V62.864C333.319 63.376 334.983 64.144 336.391 65.168C341.511 68.752 343.943 75.152 343.943 81.168C343.943 90.384 338.439 100.24 326.279 100.24C314.247 100.24 308.743 90.384 308.743 81.168C308.743 75.024 311.175 68.624 316.423 65.04C317.831 64.016 319.495 63.248 321.287 62.736V57.744C319.495 58.128 317.959 58.768 316.423 59.408C308.103 63.376 303.879 72.336 303.879 81.168C303.879 93.072 311.559 105.104 326.279 105.104C341.127 105.104 348.807 93.072 348.807 81.168C348.807 72.336 344.583 63.504 336.391 59.536V45.456C352.007 49.552 362.631 63.376 362.631 81.168C362.631 102.544 347.399 118.16 326.279 118.16C305.287 118.16 290.055 102.544 290.055 81.168C290.055 63.248 300.679 49.552 316.423 45.456C317.959 45.072 319.623 44.688 321.287 44.56V39.568C319.623 39.824 317.959 40.08 316.423 40.464C308.871 42.128 302.087 45.84 296.839 51.344C289.287 59.024 285.191 69.52 285.191 81.168C285.191 92.688 289.287 103.312 296.839 110.992C304.391 118.8 314.887 123.024 326.279 123.024C337.799 123.024 348.295 118.8 355.847 110.992C363.399 103.312 367.495 92.688 367.495 81.168C367.495 69.52 363.399 59.024 355.847 51.344ZM422.474 40.976V79.76L400.074 46.224L396.618 40.976H395.21V87.696V117.136H381.386V40.976H376.522V122H400.074V83.216L426.058 122H446.154V40.976H422.474ZM441.29 117.136H428.618L400.074 74.384V55.056L427.338 95.888V45.84H441.29V117.136ZM529.559 107.792L528.535 104.976L527.767 102.928H476.695L472.215 117.136H457.879L483.607 45.84H502.039L517.527 88.848H504.599L492.823 51.472L479.511 93.712H524.439L522.775 88.848L505.495 40.976H480.151L450.967 122H475.799L480.279 107.792H505.495L509.975 122H534.679L529.559 107.792ZM486.167 88.848L492.823 67.728L499.479 88.848H486.167ZM513.559 117.136L510.615 107.792H524.439L527.767 117.136H513.559ZM585.665 31.76V83.728C585.665 93.072 581.697 97.552 573.761 97.552C565.697 97.552 561.985 93.2 561.985 83.728V31.76H556.481V83.728C556.481 96.144 562.625 102.928 573.761 102.928C584.769 102.928 591.041 95.888 591.041 83.728V37.136H606.145V85.776C606.145 106.512 595.009 117.392 573.761 117.392C552.513 117.392 541.249 106.512 541.249 85.776V31.76H535.873V85.776C535.873 109.584 549.313 122.768 573.761 122.768C598.081 122.768 611.521 109.584 611.521 85.776V31.76H585.665ZM688.043 106.512C683.819 111.376 678.443 114.704 672.299 116.624C668.715 117.776 664.875 118.288 660.779 118.288C639.787 118.288 624.555 102.672 624.555 81.296C624.555 59.92 639.787 44.304 660.779 44.304C671.787 44.304 681.387 48.4 688.043 56.08L676.523 63.632C672.555 59.536 667.051 57.36 660.779 57.36C646.059 57.36 638.379 69.392 638.379 81.296C638.379 93.2 646.059 105.232 660.779 105.232C663.339 105.232 665.771 104.848 668.075 104.08C671.147 103.184 673.835 101.52 676.011 99.344C676.267 99.216 676.395 99.088 676.523 98.96C677.675 97.808 678.827 96.528 679.723 95.12L675.499 92.432L675.371 92.688L674.091 94.224C673.963 94.48 673.835 94.608 673.579 94.864C671.787 97.04 669.355 98.704 666.539 99.472C664.747 100.112 662.827 100.368 660.779 100.368C648.747 100.368 643.243 90.384 643.243 81.296C643.243 72.08 648.747 62.224 660.779 62.224C667.947 62.224 671.915 65.552 674.091 68.24L675.499 70.032L695.083 57.232L693.547 55.056C685.995 45.2 674.091 39.44 660.779 39.44C649.387 39.44 638.891 43.664 631.339 51.472C623.787 59.152 619.691 69.648 619.691 81.296C619.691 92.816 623.787 103.44 631.339 111.12C638.891 118.928 649.387 123.152 660.779 123.152C673.963 123.152 685.739 117.52 693.291 107.792C693.291 107.664 693.419 107.536 693.547 107.408L695.083 105.36L691.115 102.672C690.219 104.08 689.067 105.232 688.043 106.512ZM738.99 71.696C738.222 71.568 737.454 71.312 736.558 71.056C730.798 69.52 725.934 68.112 725.934 65.04C725.934 61.456 729.262 60.176 732.462 60.176C738.478 60.176 740.398 63.632 740.91 65.808L741.55 68.112L763.438 62.736L762.798 60.304C759.726 47.632 748.206 39.44 733.358 39.44C715.182 39.44 703.022 49.808 703.022 65.168C703.022 78.992 710.318 86.928 726.958 91.024C728.11 91.28 729.262 91.536 730.414 91.92C737.838 93.584 741.166 94.608 741.166 97.296C741.166 102.032 734.51 102.416 732.462 102.416C725.55 102.416 722.35 98.704 721.454 95.248L720.942 92.688L716.462 94.096C716.462 95.632 717.614 98.832 717.614 98.832C719.534 103.184 724.27 107.28 732.462 107.28C740.782 107.28 746.03 103.44 746.03 97.296C746.03 90.512 738.99 88.848 731.566 87.056C730.414 86.8 729.262 86.544 728.11 86.288C713.774 82.832 707.886 76.688 707.886 65.168C707.886 52.752 718.126 44.304 733.358 44.304C744.878 44.304 754.094 50.064 757.422 59.152L744.75 62.224C742.702 57.872 738.222 55.312 732.462 55.312C725.806 55.312 721.07 59.28 721.07 65.04C721.07 72.208 729.262 74.256 735.406 75.792C736.174 76.048 736.942 76.176 737.71 76.432C756.654 81.68 759.982 87.312 759.982 97.04C759.982 107.536 750.638 118.288 732.59 118.288C725.678 118.288 709.806 116.752 704.942 102.8C704.814 102.544 703.918 99.472 703.79 98.064L699.054 99.472L699.566 101.776C702.894 115.344 714.926 123.152 732.59 123.152C753.838 123.152 764.846 109.968 764.846 97.04C764.846 83.728 758.062 77.072 738.99 71.696ZM844.559 107.792L843.535 104.976L842.767 102.928H791.695L787.215 117.136H772.879L798.607 45.84H817.039L832.527 88.848H819.599L807.823 51.472L794.511 93.712H839.439L837.775 88.848L820.495 40.976H795.151L765.967 122H790.799L795.279 107.792H820.495L824.975 122H849.679L844.559 107.792ZM801.167 88.848L807.823 67.728L814.479 88.848H801.167ZM828.559 117.136L825.615 107.792H839.439L842.767 117.136H828.559ZM879.574 99.6V40.976H856.022V122H860.886V45.84H874.71V104.464V122H907.99V99.6H879.574ZM903.126 117.136H879.574V104.464H903.126V117.136Z" fill="white"/>
</svg>
